<?xml version="1.0" encoding="utf-8"?>
<!-- Generator: Adobe Illustrator 17.1.0, SVG Export Plug-In . SVG Version: 6.00 Build 0)  -->
<!DOCTYPE svg PUBLIC "-//W3C//DTD SVG 1.1//EN" "http://www.w3.org/Graphics/SVG/1.1/DTD/svg11.dtd">
<svg version="1.1" id="Layer_1" xmlns="http://www.w3.org/2000/svg"  x="0px" y="0px" width="615px" height="112px"
	 viewBox="0 0 615 112" enable-background="new 0 0 615 112" xml:space="preserve">
<g>
	<rect x="1.3" y="25.8" fill="#FFFFFF" width="19.8" height="85"/>
	<rect x="331.4" y="25.8" fill="#FFFFFF" width="19.8" height="85"/>
	<rect x="263.3" y="0.3" fill="#FFFFFF" width="19.8" height="110.6"/>
	<rect x="297.3" y="0.3" fill="#FFFFFF" width="19.8" height="110.6"/>
	<path fill="#FFFFFF" d="M111.9,111H92V57.5c-0.2-3.9-2.1-16-19.3-16c0,0,0,0,0,0c-8.2,0-13.7,2.4-16.7,7.3
		c-2.5,4.1-2.6,8.5-2.6,8.6v-0.1l0,53.8H33.5V60.1c0-1.4,0.2-14.8,10.3-25c7-7.1,16.7-10.7,28.9-10.7c0,0,0,0,0,0
		c15.3,0,27.4,6.4,34.1,17.9c4.8,8.4,5.1,16.8,5.1,17.7l0,0.1V111z"/>
	<g>
		<path fill="#FFFFFF" d="M481.8,110.9h-19.8V57c0-1.9-0.6-11.7,8.9-21.3c6.9-7.1,13.8-9.9,28-9.9v17c-8.1,0-11.7,1.1-14.6,5.7
			c-2.2,3.4-2.4,8.2-2.4,8.7h0h0V110.9z"/>
	</g>
	<path fill="#FFFFFF" d="M160,42.9v-17h-17V0.3h-19.8v86.5c0,0.3,0.4,24.2,35.4,24.2V93.9c-11,0-15.2-3.8-15.6-7.3V42.9H160z"/>
	<g>
		<path fill="#FFFFFF" d="M545.6,42.9v-17H530V0.3h-19.8v86.5c0,0.3,0.4,24.2,35.4,24.2V93.9c-11,0-15.2-3.8-15.6-7.3V42.9H545.6z"
			/>
	</g>
	<path fill="#FFFFFF" d="M210.9,112.3c-23.3,0-43.9-18.5-43.9-43.9c0-25.6,19.8-43.9,42.8-43.9c25.2-0.1,43.6,15.5,42.2,52.4l0,0
		h-52.3v-17l31.1,0.1c0-8.5-8.5-18.4-21-18.5c-12-0.1-22.9,8.6-23,27c-0.1,15.6,11.7,26.8,24,26.8c5.7,0,12.5-3.7,16.7-7.9
		l14.1,12.7C233.8,107.9,221.9,112.3,210.9,112.3z"/>
	<g>
		<path fill="#FFFFFF" d="M429,110.9l-0.1-42.5c0-14.2-8.1-25.5-22.2-25.5c-14.5,0-24.8,10.8-24.8,25.5c0,13.4,10.6,25.5,24.6,25.5
			h8.3v17h-8.3c-21.5,0-44.5-17-44.5-42.5c0-24,20.1-43.7,44.9-43.7c24.2,0,41.8,17.7,41.8,42.1l0.1,44.1L429,110.9z"/>
	</g>
	<g>
		<path fill="#FFFFFF" d="M585,110.9h-26.9v-17H585c4,0,10.1-1.5,10.1-7.2c0-6.7-3.3-9.1-14.5-12.2c-2.9-0.8-5.6-1.6-7.9-2.6
			c-4.3-2-17.3-7.2-17.3-22.6c0-13.5,12.7-23.4,27.9-23.4h17.8v17h-16c-2.2,0-9.9,0.5-9.9,6.4c0,3.4-0.3,4.9,4.6,7.2
			c1,0.5,3.3,1.1,5.3,1.7c9.2,2.6,29.8,7.9,29.8,28.6C615,100.7,601.6,110.9,585,110.9z"/>
	</g>
</g>
</svg>
